<?xml version="1.0" standalone="no"?>
<!DOCTYPE svg PUBLIC "-//W3C//DTD SVG 20010904//EN"
 "http://www.w3.org/TR/2001/REC-SVG-20010904/DTD/svg10.dtd">
<svg version="1.0" xmlns="http://www.w3.org/2000/svg"
 width="1658.000000pt" height="1658.000000pt" viewBox="0 0 1658.000000 1658.000000"
 preserveAspectRatio="xMidYMid meet">
<metadata>
Created by potrace 1.14, written by Peter Selinger 2001-2017
</metadata>
<g transform="translate(0.000000,1658.000000) scale(0.100000,-0.100000)"
fill="#000000" stroke="none">
<path d="M14401 12374 c-318 -55 -595 -304 -685 -615 -9 -31 -20 -67 -24 -80
-4 -13 -8 -1285 -9 -2827 l-3 -2802 112 4 c136 6 179 12 282 37 232 58 445
180 617 352 102 101 217 261 224 310 2 12 19 59 39 103 31 71 67 189 93 304 4
19 9 1204 10 2633 l3 2598 -292 -2 c-187 -1 -320 -6 -367 -15z"/>
<path d="M2747 12364 c-1 -1 -28 -4 -59 -8 -401 -42 -784 -295 -989 -655 -72
-124 -139 -309 -154 -423 -3 -18 -8 -44 -11 -58 -4 -14 -8 -1188 -9 -2608 l-2
-2584 326 4 c320 4 328 5 414 31 316 97 537 327 617 642 l23 90 2 2775 c1
1526 -1 2781 -3 2788 -3 9 -26 11 -79 10 -41 -2 -75 -4 -76 -4z"/>
<path d="M3035 11677 l0 -692 1395 0 1395 0 1 116 c2 150 -17 260 -71 402
-118 315 -340 564 -640 719 -61 32 -169 77 -200 84 -5 2 -46 12 -90 23 -44 11
-98 23 -120 27 -22 4 -407 8 -855 10 l-815 3 0 -692z"/>
<path d="M7395 12364 c-5 -1 -35 -5 -65 -7 -262 -21 -571 -169 -777 -374 -211
-210 -345 -481 -381 -773 -9 -72 -9 -3938 0 -4010 4 -30 9 -62 12 -70 3 -8 7
-29 9 -46 8 -56 78 -246 119 -323 113 -214 321 -430 508 -530 l56 -30 70 46
c128 85 222 173 338 318 126 158 226 416 252 650 4 33 7 1205 7 2605 l0 2545
-69 1 c-38 1 -73 0 -79 -2z"/>
<path d="M7676 12362 c-6 -12 -4 -1372 3 -1373 15 -3 2767 -5 2776 -2 12 4 12
224 1 283 -57 291 -168 502 -371 705 -221 222 -481 349 -785 384 -88 10 -1618
13 -1624 3z"/>
<path d="M4446 10811 c-1 -3 -2 -706 -2 -1561 l1 -1555 85 0 c220 1 397 46
601 151 294 152 532 431 638 750 61 186 60 164 60 1240 l-1 981 -689 0 c-380
0 -691 -3 -693 -6z"/>
<path d="M7955 9750 l-40 -5 -2 -687 -2 -688 520 0 c408 0 519 3 520 13 4 74
0 1359 -4 1364 -7 7 -937 10 -992 3z"/>
<path d="M9124 9752 l-41 -3 1 -1092 1 -1092 680 -1 c374 0 685 1 690 3 7 2
10 256 9 766 -1 740 -2 764 -22 840 -84 312 -340 539 -648 573 -55 6 -601 11
-670 6z"/>
<path d="M11587 9114 c-1 -1 -33 -4 -72 -8 -313 -28 -594 -250 -699 -552 -13
-38 -27 -87 -30 -109 -4 -23 -9 -52 -12 -65 -7 -35 -7 -610 0 -617 8 -9 556
-8 636 1 370 39 682 352 726 727 8 68 11 566 4 598 l-6 23 -273 2 c-150 0
-273 0 -274 0z"/>
<path d="M3039 9075 c-5 0 -3 -1368 1 -1375 3 -5 291 -8 640 -7 l635 2 0 688
c0 453 -3 687 -10 688 -7 1 -1236 5 -1266 4z"/>
<path d="M7681 7430 c-5 -3 -9 -43 -9 -90 -5 -227 -53 -434 -147 -621 -106
-213 -233 -368 -423 -518 -45 -36 -81 -66 -79 -67 1 -2 43 -15 92 -29 179 -52
204 -53 1235 -50 525 1 971 5 990 9 114 23 240 60 319 95 341 146 596 415 724
761 31 83 41 122 62 230 14 74 26 279 16 281 -20 4 -2774 3 -2780 -1z"/>
<path d="M10774 7428 c-5 -8 3 -186 11 -235 28 -171 70 -298 144 -439 185
-351 520 -599 921 -680 76 -16 172 -18 893 -20 l807 -2 0 691 0 692 -1386 0
c-762 0 -1388 -3 -1390 -7z"/>
<path d="M1524 5028 c2 -759 -1 -723 69 -785 20 -18 53 -37 74 -42 26 -8 2087
-11 6716 -11 l6677 0 0 673 c0 413 -4 686 -10 708 -13 45 -56 94 -106 119 -39
19 -125 19 -6730 20 l-6691 0 1 -682z m6866 340 c104 -32 167 -110 184 -230
l7 -48 -48 -1 c-56 -1 -117 2 -121 6 -2 1 -5 14 -8 29 -15 86 -49 111 -146
107 -29 -1 -94 -51 -96 -73 0 -7 -5 -30 -10 -50 -6 -21 -9 -113 -8 -205 2
-185 13 -225 69 -267 48 -35 185 -24 188 16 4 62 3 142 -2 150 -4 5 -32 10
-63 10 -44 1 -56 4 -57 17 -4 81 -3 111 6 114 6 2 75 3 154 2 l144 0 0 -183
c-1 -211 2 -204 -97 -252 -70 -35 -123 -45 -219 -42 -153 4 -260 99 -291 261
-14 70 -14 342 -1 406 10 50 52 128 89 165 55 56 125 79 226 75 47 -1 92 -5
100 -7z m-5725 -30 c96 -50 145 -131 150 -248 5 -122 -46 -219 -139 -265 -50
-24 -110 -34 -223 -35 l-52 0 2 -150 c0 -82 -2 -152 -6 -156 -6 -6 -56 -8
-147 -5 l-25 1 1 443 c1 243 2 444 3 445 0 2 88 2 194 0 184 -3 194 -5 242
-30z m852 -43 l0 -74 -110 -3 -110 -3 0 -367 1 -368 -27 -1 c-91 -3 -142 -1
-148 4 -3 4 -6 171 -6 372 l0 365 -109 0 -108 0 0 75 0 75 309 0 309 0 -1 -75z
m1019 54 c62 -23 114 -70 144 -129 27 -53 31 -70 31 -150 1 -80 -21 -142 -69
-192 -63 -67 -129 -86 -299 -88 l-43 0 0 -155 0 -155 -25 -1 c-14 0 -53 -1
-87 -2 l-63 -1 -1 447 -1 448 181 -2 c152 -1 189 -4 232 -20z m474 -314 c0
-375 3 -394 60 -414 41 -14 68 -14 107 -1 54 19 57 35 59 380 2 173 3 327 3
343 l1 27 89 0 88 0 -2 -352 c-1 -334 -3 -356 -22 -399 -55 -121 -185 -174
-358 -145 -86 14 -169 91 -193 180 -7 23 -11 172 -12 377 l0 339 90 0 90 0 0
-335z m1122 319 c2 -9 1 -43 0 -75 l-4 -58 -106 -3 -107 -3 -2 -359 c-1 -197
-4 -364 -6 -370 -4 -9 -83 -12 -163 -7 -9 1 -12 95 -12 354 -1 193 -1 360 -1
369 -1 15 -15 18 -108 20 l-108 3 -1 65 c0 36 1 68 3 73 2 4 141 7 308 7 272
0 304 -2 307 -16z m522 -9 c70 -29 95 -51 126 -112 31 -61 36 -183 10 -250
-18 -47 -61 -102 -93 -120 -18 -9 -13 -23 61 -196 63 -148 76 -187 63 -188
-25 -1 -134 -1 -157 0 -17 1 -32 30 -88 165 l-68 164 -41 -3 c-23 -2 -44 -4
-47 -4 -3 -1 -4 -73 -4 -161 1 -142 0 -160 -15 -161 -9 0 -49 -1 -89 -2 l-72
-2 0 448 0 448 178 -1 c163 -2 184 -4 236 -25z m680 -22 c8 -27 38 -122 66
-213 29 -91 69 -219 90 -285 81 -253 107 -340 104 -344 -6 -6 -176 -2 -183 4
-3 4 -15 43 -26 88 l-20 82 -126 3 -126 3 -18 -68 c-9 -37 -19 -76 -21 -87 -2
-10 -6 -21 -8 -23 -7 -7 -174 -8 -181 -2 -3 3 4 32 14 65 11 32 41 127 66 209
26 83 71 229 102 325 30 96 61 198 70 225 9 28 18 53 20 58 2 4 40 7 83 7 l78
0 16 -47z m1887 40 c1 -15 1 -108 0 -125 -1 -16 -16 -18 -166 -18 l-166 0 3
-107 3 -108 138 3 137 2 0 -73 0 -73 -140 1 -140 1 0 -121 0 -121 165 1 165 1
1 -40 c1 -23 2 -56 3 -73 0 -18 -3 -33 -9 -34 -13 -1 -442 -1 -477 0 l-26 1 0
445 -1 445 255 0 c140 0 254 -3 255 -7z m542 -22 c95 -47 144 -145 134 -271
-6 -81 -34 -142 -87 -190 l-39 -35 75 -175 c42 -96 76 -179 77 -184 1 -4 -25
-8 -58 -8 -138 1 -132 -1 -145 35 -18 49 -26 68 -49 119 -12 26 -21 50 -21 53
0 3 -9 24 -19 48 -11 23 -21 49 -23 57 -6 21 -98 22 -99 1 0 -9 -1 -82 -1
-163 l0 -148 -34 -1 c-19 0 -47 -1 -64 -1 -16 0 -41 1 -55 1 l-25 1 0 446 0
446 193 -4 c176 -4 196 -6 240 -27z m769 17 c3 -7 4 -40 4 -73 l-1 -60 -165
-5 -165 -5 0 -102 -1 -103 36 -1 c19 -1 82 -2 139 -2 l105 -2 1 -67 c1 -42 -3
-69 -9 -69 -6 -1 -69 -2 -141 -3 l-130 -1 0 -117 c0 -73 3 -119 10 -121 5 -2
80 -3 166 -3 l156 1 0 -72 c0 -72 0 -73 -26 -74 -14 0 -128 -1 -254 -2 l-227
-2 -1 65 c0 58 0 735 1 803 l0 27 249 0 c190 0 250 -3 253 -12z m367 -70 c12
-46 24 -92 27 -103 3 -11 7 -29 9 -40 3 -11 24 -94 49 -185 24 -91 47 -180 51
-198 9 -41 13 -38 31 29 21 78 103 390 128 489 l21 85 118 3 117 3 -2 -447 -3
-447 -60 1 c-33 0 -73 1 -88 1 l-28 1 5 228 c4 125 8 260 10 300 2 41 2 71 -1
69 -2 -3 -19 -58 -38 -123 -18 -66 -45 -159 -60 -209 -15 -49 -38 -128 -51
-175 -14 -46 -27 -86 -29 -88 -2 -2 -28 -4 -59 -5 -64 -3 -59 -9 -97 128 -12
44 -27 98 -34 120 -7 22 -32 108 -55 190 -24 83 -46 153 -49 157 -4 4 -5 -9
-4 -30 18 -353 21 -553 8 -559 -6 -2 -47 -5 -91 -6 l-81 -2 0 448 0 447 117 0
118 0 21 -82z m1460 -260 c0 -311 -2 -348 -20 -393 -41 -110 -123 -168 -239
-168 -139 -1 -242 91 -252 224 l-3 44 88 1 c59 1 87 -2 88 -10 6 -90 60 -137
116 -101 13 9 29 28 34 43 7 17 11 153 11 357 1 182 3 333 5 338 2 4 42 7 89
7 l84 0 -1 -342z m536 320 c4 -13 29 -93 56 -178 27 -85 49 -157 50 -160 0 -3
38 -122 83 -265 46 -143 82 -262 80 -264 -6 -7 -171 -4 -182 3 -7 4 -12 14
-12 23 0 9 -9 47 -20 84 l-21 69 -123 0 -124 0 -22 -90 c-17 -67 -26 -90 -39
-91 -71 -3 -162 -1 -167 3 -2 3 9 50 26 104 17 55 56 176 85 269 30 94 78 248
107 342 l53 173 82 0 c76 0 82 -2 88 -22z m459 -156 c33 -97 64 -187 69 -200
9 -19 20 7 77 175 l67 198 97 3 97 3 -14 -33 c-8 -18 -42 -100 -77 -183 -34
-82 -68 -163 -75 -180 -72 -160 -69 -149 -71 -323 -1 -89 -4 -166 -8 -169 -5
-5 -99 -7 -160 -4 -12 1 -14 30 -14 160 l1 159 -113 268 c-62 148 -117 277
-122 287 -8 16 -1 17 89 17 l98 0 59 -178z m786 174 c0 -5 202 -652 248 -793
26 -81 28 -93 13 -94 -97 -4 -164 -2 -170 6 -5 6 -11 24 -15 40 -4 17 -14 54
-22 83 l-15 52 -125 0 c-68 0 -124 -3 -125 -7 -3 -28 -41 -158 -49 -168 -9
-10 -167 -12 -177 -2 -3 4 2 25 12 49 9 24 16 44 15 46 -1 1 15 55 35 120 103
330 144 459 153 482 5 14 10 28 11 33 0 4 11 41 23 82 l22 75 83 0 c46 0 83
-2 83 -4z m-10499 -738 c75 -75 -11 -190 -111 -148 -70 29 -77 129 -11 165 42
22 89 16 122 -17z"/>
<path d="M2403 5080 l0 -140 81 0 c92 0 120 13 141 65 16 36 12 122 -6 157
-24 47 -49 58 -135 58 l-81 0 0 -140z"/>
<path d="M4300 5080 l0 -140 78 0 c59 0 85 5 110 20 17 11 32 23 33 27 0 5 3
17 6 28 9 36 6 96 -7 135 -18 53 -52 70 -144 70 l-76 0 0 -140z"/>
<path d="M6419 5213 c-1 -10 -1 -245 0 -256 1 -4 33 -7 73 -6 62 2 75 6 101
29 26 23 31 36 35 86 5 74 -16 130 -53 144 -31 12 -155 14 -156 3z"/>
<path d="M7194 4967 c-22 -83 -40 -153 -39 -155 5 -6 165 -6 165 0 0 16 -73
294 -79 300 -4 5 -25 -61 -47 -145z"/>
<path d="M9509 5213 c-1 -11 -1 -148 0 -211 l1 -54 75 4 c105 6 138 40 136
141 -1 95 -36 126 -138 127 -40 0 -73 -3 -74 -7z"/>
<path d="M12795 5093 c-5 -21 -10 -42 -11 -48 -2 -5 -16 -61 -32 -122 l-30
-113 27 -1 c41 -1 136 2 139 5 3 3 -78 309 -83 314 -1 2 -6 -14 -10 -35z"/>
<path d="M14045 5098 c-4 -18 -22 -89 -41 -157 -18 -69 -32 -127 -29 -129 5
-5 155 -5 161 0 2 3 -1 20 -6 39 -6 19 -12 45 -15 59 -3 14 -12 50 -21 80 -8
30 -20 74 -26 98 -5 23 -11 42 -13 42 -2 0 -6 -15 -10 -32z"/>
</g>
</svg>
